<?xml version="1.0" encoding="UTF-8" standalone="no"?>
<!DOCTYPE svg PUBLIC "-//W3C//DTD SVG 1.1//EN"
 "http://www.w3.org/Graphics/SVG/1.1/DTD/svg11.dtd">
<!-- Generated by graphviz version 2.38.0 (20140413.2041)
 -->
<!-- Title: %3 Pages: 1 -->
<svg width="81pt" height="188pt"
 viewBox="0.00 0.00 81.28 188.00" xmlns="http://www.w3.org/2000/svg" xmlns:xlink="http://www.w3.org/1999/xlink">
<g id="graph0" class="graph" transform="scale(1 1) rotate(0) translate(4 184)">
<title>%3</title>
<polygon fill="white" stroke="none" points="-4,4 -4,-184 77.2831,-184 77.2831,4 -4,4"/>
<!-- RGB -->
<g id="node1" class="node"><title>RGB</title>
<ellipse fill="none" stroke="black" cx="36.6415" cy="-162" rx="28.0822" ry="18"/>
<text text-anchor="middle" x="36.6415" y="-157.8" font-family="Times,serif" font-size="14.00">RGB</text>
</g>
<!-- CMYK -->
<g id="node2" class="node"><title>CMYK</title>
<ellipse fill="none" stroke="black" cx="36.6415" cy="-90" rx="36.7836" ry="18"/>
<text text-anchor="middle" x="36.6415" y="-85.8" font-family="Times,serif" font-size="14.00">CMYK</text>
</g>
<!-- RGB&#45;&gt;CMYK -->
<g id="edge1" class="edge"><title>RGB&#45;&gt;CMYK</title>
<path fill="none" stroke="black" d="M36.6415,-143.697C36.6415,-135.983 36.6415,-126.712 36.6415,-118.112"/>
<polygon fill="black" stroke="black" points="40.1416,-118.104 36.6415,-108.104 33.1416,-118.104 40.1416,-118.104"/>
</g>
<!-- HSL -->
<g id="node3" class="node"><title>HSL</title>
<ellipse fill="none" stroke="black" cx="36.6415" cy="-18" rx="27" ry="18"/>
<text text-anchor="middle" x="36.6415" y="-13.8" font-family="Times,serif" font-size="14.00">HSL</text>
</g>
<!-- CMYK&#45;&gt;HSL -->
<g id="edge2" class="edge"><title>CMYK&#45;&gt;HSL</title>
<path fill="none" stroke="black" d="M36.6415,-71.6966C36.6415,-63.9827 36.6415,-54.7125 36.6415,-46.1124"/>
<polygon fill="black" stroke="black" points="40.1416,-46.1043 36.6415,-36.1043 33.1416,-46.1044 40.1416,-46.1043"/>
</g>
</g>
</svg>
